<?xml version="1.0" encoding="utf-8"?>
<!-- Generator: Adobe Illustrator 25.0.0, SVG Export Plug-In . SVG Version: 6.00 Build 0)  -->
<svg version="1.1" id="Capa_1" xmlns="http://www.w3.org/2000/svg" xmlns:xlink="http://www.w3.org/1999/xlink" x="0px" y="0px"
	 viewBox="0 0 12789.88 5834.73" style="enable-background:new 0 0 12789.88 5834.73;" xml:space="preserve">
<style type="text/css">
	.st0{fill:#00517C;}
	.st1{fill:#FFFFFF;}
	.st2{font-family:'HelveticaNeue-Light';}
	.st3{font-size:943.5955px;}
	.st4{font-family:'HelveticaNeue-Bold';}
	.st5{letter-spacing:56;}
</style>
<g>
	<path class="st0" d="M1815.42,3163.19c6.29,142.38,12.45,292.06,19.6,441.68c11.52,240.78,39.83,479.67,89.43,715.54
		c23.27,110.65,70.43,212.2,150.19,294.59c76.94,79.47,164.54,76.84,242.44-2.7c41.04-41.9,67.28-92.76,89.62-145.86
		c58.41-138.84,93.29-284.57,125.14-431.17c41.94-193.06,67.35-390,132.42-577.64c30.91-89.13,67.13-175.74,137.94-243.05
		c51.36-48.81,110.15-61.21,176.64-42.71c85.63,23.82,141.94,82.76,183.29,157.86c52.17,94.74,80.41,198.05,99.67,303.33
		c43.32,236.74,81.72,474.39,126.22,710.9c19.56,103.95,72.99,194.3,144.49,271.18c77.07,82.86,173.65,79.03,250.11-3.73
		c35.24-38.14,59.43-83.34,77.42-131.14c76.27-202.67,120.67-412.25,138.29-628.24c8.44-103.52,6.91-207.09,11.76-310.56
		c9.49-202.36,8.32-404.78,0.64-607.22c-2.58-68.16-21.71-141.22,6.44-203.65c85.57-189.83,145.3-388.16,207.09-585.95
		c72.06-230.66,108.53-465.07,69.63-707.02c-40.89-254.36-196.6-429.59-432.4-477.96c-118.19-24.24-236.36-23.29-354.86,9.67
		c-195.74,54.44-394.85,86.88-599.49,82.53c-164.08-3.49-321.46-46.11-481.76-71.87c-136.74-21.98-273.16-48.2-413.06-24.26
		c-227.28,38.9-383.95,185.25-432.74,410.2c-42.47,195.82-41.46,393.53-4.68,589.06c48.57,258.2,146.92,501.37,243.31,744.6
		c7.67,19.36,15.09,37.9,14.09,59.7C1826.28,2891.42,1821.16,3023.59,1815.42,3163.19z"/>
	<path class="st1" d="M3520.11,3002.58c-14.22-21.16-8.91-40.77-9.53-59.22c-7.41-219.79-13.51-439.62-21.7-659.37
		c-8.06-216.5-18.18-432.92-27.25-649.38c-1.68-40.03-0.68-80.12,13.57-118.09c13.53-36.05-6.01-37.72-32.52-34.09
		c-55.22,7.56-110.22,17.33-166.23,16.96c-279.26-1.82-551.34-53.39-821.12-119.79c-104.64-25.76-208.44-54.9-310.69-91.54
		c51.25,7.26,102.53,14.34,153.75,21.8c289.12,42.15,579.7,65.2,871.8,53.36c162.66-6.59,323.96-28.16,476.76-90.96
		c50.79-20.88,62.47-8.82,92.29,33.73c64.87,92.57,29.06,192.65,25.16,287.77c-7.89,192.4-27.73,384.4-53.34,575.49
		c-35.37,263.93-70.07,528.09-162.49,780.15C3542.13,2966.96,3537.8,2986.06,3520.11,3002.58z"/>
	<path class="st1" d="M2179.69,3134.65c-30.29-70-39.4-140.47-47.48-210.36c-32.32-279.38-18.38-560-19.69-840.2
		c-0.11-22.62-0.75-47.62,27.73-53.98c33.53-7.49,67.79-23.91,102.16-5.62c16.12,8.58,11.65,24.87,4.63,38.12
		c-43.49,82.01-40.85,172.91-47.45,261.1c-18.93,252.87-8.91,506.35-10.7,759.58C2188.77,3098.36,2194.12,3114.58,2179.69,3134.65z"
		/>
</g>
<rect x="4647.06" y="942.36" class="st0" width="210.61" height="3733.53"/>
<text transform="matrix(1 0 0 1 5054.3926 2420.1165)"><tspan x="0" y="0" class="st0 st2 st3">Clínica Dental</tspan><tspan x="0" y="1132.31" class="st0 st4 st3 st5">Toño</tspan><tspan x="2515.59" y="1132.31" class="st4 st3 st5">Dentix</tspan></text>
</svg>
