<?xml version="1.0" encoding="utf-8"?>
<!-- Generator: Adobe Illustrator 25.0.0, SVG Export Plug-In . SVG Version: 6.00 Build 0)  -->
<svg version="1.1" id="Capa_1" xmlns="http://www.w3.org/2000/svg" xmlns:xlink="http://www.w3.org/1999/xlink" x="0px" y="0px"
	 viewBox="0 0 594.7 279.76" style="enable-background:new 0 0 594.7 279.76;" xml:space="preserve">
<style type="text/css">
	.st0{fill:#0090DD;}
	.st1{fill:#FFFFFF;stroke:#000000;stroke-miterlimit:10;}
	.st2{font-family:'HelveticaNeue-Light';}
	.st3{font-size:68.0144px;}
	.st4{font-family:'HelveticaNeue-Bold';}
	.st5{letter-spacing:3.42;}
</style>
<rect x="217.28" y="4.34" class="st1" width="13.31" height="269.11"/>
<text transform="matrix(0.8768 0 0 1 243.0287 110.8733)"><tspan x="0" y="0" class="st1 st2 st3">Clínica Dental</tspan><tspan x="0" y="81.62" class="st1 st4 st3 st5">Toño</tspan><tspan x="181.32" y="81.62" class="st4 st3 st5">Dentix</tspan></text>
<g>
	<path class="st1" d="M19.4,164.57c0.4,10.26,0.79,21.05,1.24,31.84c0.73,17.36,2.52,34.57,5.65,51.58
		c1.47,7.98,4.45,15.3,9.49,21.23c4.86,5.73,10.4,5.54,15.32-0.19c2.59-3.02,4.25-6.69,5.66-10.51c3.69-10.01,5.9-20.51,7.91-31.08
		c2.65-13.92,4.26-28.11,8.37-41.64c1.95-6.42,4.24-12.67,8.72-17.52c3.25-3.52,6.96-4.41,11.16-3.08
		c5.41,1.72,8.97,5.97,11.58,11.38c3.3,6.83,5.08,14.28,6.3,21.86c2.74,17.06,5.16,34.19,7.98,51.24
		c1.24,7.49,4.61,14.01,9.13,19.55c4.87,5.97,10.97,5.7,15.81-0.27c2.23-2.75,3.76-6.01,4.89-9.45c4.82-14.61,7.63-29.71,8.74-45.28
		c0.53-7.46,0.44-14.93,0.74-22.39c0.6-14.59,0.53-29.18,0.04-43.77c-0.16-4.91-1.37-10.18,0.41-14.68
		c5.41-13.68,9.18-27.98,13.09-42.24c4.55-16.63,6.86-33.52,4.4-50.96c-2.58-18.33-12.42-30.96-27.33-34.45
		c-7.47-1.75-14.94-1.68-22.43,0.7c-12.37,3.92-24.95,6.26-37.89,5.95C78.03,12.13,68.08,9.06,57.95,7.2
		c-8.64-1.58-17.26-3.47-26.1-1.75C17.48,8.26,7.58,18.81,4.5,35.02C1.81,49.14,1.88,63.39,4.2,77.48
		c3.07,18.61,9.28,36.14,15.38,53.67c0.48,1.4,0.95,2.73,0.89,4.3C20.09,144.98,19.76,154.51,19.4,164.57z"/>
	<path class="st0" d="M127.13,152.99c-0.9-1.52-0.56-2.94-0.6-4.27c-0.47-15.84-0.85-31.69-1.37-47.53
		c-0.51-15.61-1.15-31.2-1.72-46.81c-0.11-2.89-0.04-5.78,0.86-8.51c0.85-2.6-0.38-2.72-2.06-2.46c-3.49,0.55-6.97,1.25-10.51,1.22
		c-17.65-0.13-34.84-3.85-51.89-8.63c-6.61-1.86-13.17-3.96-19.63-6.6c3.24,0.52,6.48,1.03,9.72,1.57
		c18.27,3.04,36.64,4.7,55.1,3.85c10.28-0.48,20.47-2.03,30.13-6.56c3.21-1.5,3.95-0.64,5.83,2.43c4.1,6.67,1.84,13.89,1.59,20.74
		c-0.5,13.87-1.75,27.71-3.37,41.48c-2.24,19.02-4.43,38.07-10.27,56.23C128.52,150.42,128.25,151.8,127.13,152.99z"/>
	<path class="st0" d="M42.42,162.51c-1.91-5.05-2.49-10.13-3-15.16c-2.04-20.14-1.16-40.36-1.24-60.56
		c-0.01-1.63-0.05-3.43,1.75-3.89c2.12-0.54,4.28-1.72,6.46-0.41c1.02,0.62,0.74,1.79,0.29,2.75c-2.75,5.91-2.58,12.46-3,18.82
		c-1.2,18.23-0.56,36.5-0.68,54.75C43,159.9,43.33,161.06,42.42,162.51z"/>
</g>
</svg>
